<?xml version="1.0" encoding="UTF-8"?>
<svg id="Layer_1" data-name="Layer 1" xmlns="http://www.w3.org/2000/svg" xmlns:xlink="http://www.w3.org/1999/xlink" viewBox="0 0 453.04 440.23">
  <defs>
    <style>
      .cls-1 {
        stroke-miterlimit: 10;
      }

      .cls-1, .cls-2, .cls-3, .cls-4 {
        stroke: #582d0b;
        stroke-linecap: round;
      }

      .cls-1, .cls-3 {
        stroke-width: 9px;
      }

      .cls-1, .cls-3, .cls-4 {
        fill: none;
      }

      .cls-2 {
        fill: #582e0b;
      }

      .cls-2, .cls-3, .cls-4 {
        stroke-linejoin: round;
      }

      .cls-5 {
        fill: #362d24;
      }

      .cls-6 {
        fill: url(#linear-gradient);
      }

      .cls-7 {
        fill: #febd18;
      }

      .cls-4 {
        stroke-width: 8px;
      }

      .cls-8 {
        fill: #fab271;
      }

      .cls-9 {
        fill: #f99800;
      }

      .cls-10 {
        fill: #ffad06;
      }

      .cls-11 {
        fill: #4e443a;
      }

      .cls-12 {
        fill: #582d0b;
      }

      .cls-13 {
        fill: #9f5221;
      }
    </style>
    <linearGradient id="linear-gradient" x1="246.31" y1="104.91" x2="245.65" y2="380.3" gradientUnits="userSpaceOnUse">
      <stop offset="0" stop-color="#fb9e36"/>
      <stop offset="1" stop-color="#e27e30"/>
    </linearGradient>
  </defs>
  <rect class="cls-6" x="38.96" y="26.08" width="414.09" height="414.09" rx="89.17" ry="89.17"/>
  <path class="cls-13" d="M379,269.78c24.74,52.78,12.79,127.13-60.27,114.88-23.93,6.69-31.91,19.35-76.14,17.91-38.2,1.13-39.38-6.45-59.25-10.33-71.75,10.66-104.56-62.56-72.39-119.66,12.73-25.13,19.28-33.99,39.15-52.25,1.02-1.03,1.15-2.65.33-3.84-43-52.26,10.15-130.54,68.28-144.08,12.94-5.74,18.27-12.81,35.22-13.47,8.87-.35,2.54,11.59,7.24,12.4,58.23,6.03,105.98,67.85,89.4,127.57-5,11.75-13.84,15.62-9.55,20.31,0,0,13.04,12.4,20.3,21.86,7.26,9.46,17.68,28.7,17.68,28.7Z"/>
  <path class="cls-8" d="M332.08,150.53c-.04.37-.08.73-.13,1.1-9.25-13.59-28.98-21.02-44.4-17.03-29.68,4.99-16.65,37.31,4.13,44.48,51.6,17.81,3.03,49.08-40.54,50.14-57.83,1.42-108.55-32.33-47.79-53.09,27.45-9.38,18.35-44.82-11.67-42.43-14-.97-27.51,9.15-34.49,16.83,8.18-32.28,46.93-44.76,75.21-30.14,3.92.9,8.02,1.38,12.24,1.38,13.7,1.08,24.32-8.39,37.76-7.76,23.98.12,44.02,15.11,49.68,36.52Z"/>
  <g>
    <path class="cls-12" d="M249.76,58.59v9c.05,0,.1,0,.15,0,.03,1.18.14,2.45.46,3.74,1.15,4.76,4.62,8.07,9.27,8.87l.3.05.3.03c26.4,2.73,51.84,18.56,68.05,42.34,7.38,10.83,12.56,23.03,14.98,35.28,2.53,12.85,2.13,25.63-1.21,37.99-1.62,3.59-3.76,6.32-5.66,8.75-1.85,2.35-3.59,4.57-4.62,7.28-1.8,4.71-.85,9.58,2.6,13.36l1.72,1.88.29.08c3.57,3.48,12.45,12.33,17.8,19.3,6.33,8.25,15.61,25.13,16.79,27.29,13.66,29.33,14.3,63.77,1.54,83.85-8.15,12.82-21.11,19.31-38.52,19.31-4.32,0-8.95-.41-13.77-1.22l-1.98-.33-1.93.54c-7.86,2.2-14.02,4.93-19.99,7.58-11.71,5.2-22.76,10.11-47,10.11-2.07,0-4.24-.04-6.44-.11h-.28s-.28,0-.28,0c-2.46.07-4.83.11-7.05.11-18.8,0-25.67-2.51-33.63-5.42-4.45-1.63-9.5-3.47-16.59-4.85l-1.52-.3-1.53.23c-4.22.63-8.39.95-12.4.95-22.95,0-41.64-10.34-52.62-29.13-6.29-10.76-9.55-23.57-9.42-37.05.13-14.11,4.01-28.32,11.21-41.11l.1-.17.09-.18c12.34-24.37,18.26-32.27,37.21-49.69l.17-.15.16-.16c4.02-4.09,4.58-10.49,1.35-15.23l-.23-.33-.26-.31c-17.74-21.56-14.94-45.34-9.47-61.49,10.9-32.17,41.53-60.82,72.84-68.11l.83-.19.78-.35c4.3-1.91,7.98-4.22,11.55-6.46,5.86-3.68,10.49-6.59,15.86-6.59v-9M249.76,58.59c-12.06,0-20.15,8.98-31.06,13.82-58.12,13.55-111.27,91.83-68.28,144.08.82,1.2.68,2.81-.33,3.84-19.87,18.26-26.43,27.12-39.15,52.25-30.04,53.33-3.42,120.7,58.67,120.7,4.4,0,8.98-.34,13.72-1.04,18.52,3.61,20.81,10.44,51.94,10.44,2.28,0,4.71-.04,7.32-.11,2.35.08,4.59.11,6.74.11,38.38,0,46.74-11.7,69.4-18.03,5.42.91,10.5,1.34,15.26,1.34,59.37,0,67.91-67.36,45.01-116.22,0,0-10.43-19.24-17.68-28.7-7.26-9.46-20.3-21.86-20.3-21.86-4.29-4.7,4.55-8.57,9.55-20.31,16.58-59.72-31.17-121.54-89.4-127.57-4.7-.81.16-10.89-4.2-11.72-2.57-.71-4.95-1.02-7.2-1.02h0Z"/>
    <polygon class="cls-12" points="154.68 207.76 165.43 219.37 153.18 229.47 154.68 207.76"/>
    <polygon class="cls-12" points="337.28 227.28 324.71 218.42 334.88 206.69 337.28 227.28"/>
    <path class="cls-1" d="M255.73,75.59s-7.32,7.57-8.73,9.26"/>
    <path class="cls-1" d="M274.02,79.38s-7.32,7.57-8.73,9.26"/>
    <ellipse class="cls-12" cx="245.4" cy="170.24" rx="19.94" ry="14.99"/>
    <path class="cls-3" d="M204.6,189.98s16.55,13.83,40.8,13.83,38.54-13.83,38.54-13.83"/>
    <line class="cls-3" x1="244.64" y1="182.19" x2="244.64" y2="203.81"/>
    <path class="cls-4" d="M283.94,157.1s4.15,8.3,14.47,8.3,14.47-8.3,14.47-8.3"/>
    <path class="cls-4" d="M176.8,157.1s4.15,8.3,14.47,8.3,14.47-8.3,14.47-8.3"/>
  </g>
  <g>
    <path class="cls-11" d="M136.52,318.01l.65,3.07c.12.62.69,1.02,1.31.97,13.77-1.21,30.6,4.73,36.52,16.02.34.65,1.08,1,1.81.87,15.26-2.59,162.74-27.65,167.69-28.49,6.84-1.17,11.45-7.65,10.28-14.5l-7.69-45.31c-1.17-6.85-7.65-11.46-14.5-10.29l-155.12,26.35-13.52,2.3c-.59.1-1.04.57-1.15,1.16-2.36,12.3-16.91,23.06-29.24,26.41-.58.15-1.02.55-1.25,1.06-.19.38-.24.81-.15,1.25.23,1.05.48,2.18.5,2.3l3.86,16.84Z"/>
    <rect class="cls-7" x="182.74" y="262.1" width="142.33" height="63.27" transform="translate(-45.52 46.57) rotate(-9.62)"/>
    <rect class="cls-10" x="185.03" y="289.22" width="142.33" height="35.96" transform="translate(-47.74 47.14) rotate(-9.62)"/>
    <rect class="cls-9" x="186.68" y="308.93" width="142.33" height="16.1" transform="translate(-49.35 47.56) rotate(-9.62)"/>
    <path class="cls-5" d="M334.71,248.16c2.22,0,4.11,1.6,4.49,3.81l7.69,45.32c.42,2.48-1.25,4.84-3.73,5.27-4.25.72-135.03,22.94-163.6,27.79-8.08-10.84-23-16-35.77-16.43l-2.64-11.5c11.74-4.73,23.79-14.38,28.21-26.24l9.43-1.6,155.12-26.35c.26-.04.52-.07.78-.07M334.71,240.16c-.7,0-1.41.06-2.13.18l-155.12,26.35-13.52,2.3c-.59.1-1.04.57-1.15,1.16-2.36,12.3-16.91,23.06-29.24,26.41-.58.15-1.02.55-1.25,1.06-.19.38-.24.81-.15,1.25.23,1.05.48,2.18.5,2.3l3.86,16.84.65,3.07c.11.58.63.97,1.2.97.03,0,.07,0,.1,0,1.18-.1,2.38-.15,3.59-.15,12.98,0,27.52,5.85,32.93,16.17.29.56.88.89,1.5.89.1,0,.2,0,.3-.03,15.26-2.59,162.74-27.65,167.69-28.49,6.84-1.17,11.45-7.65,10.28-14.5l-7.69-45.31c-1.05-6.13-6.36-10.47-12.37-10.47h0Z"/>
    <path class="cls-7" d="M136.04,318.16c-2.77.48-8.15,1.4-11.42,1.96-.56.09-1.12-.16-1.41-.65l-8.62-14.03c-.26-.41-.02-.96.46-1.05,4.66-.88,13.14-2.44,17.12-3.07l3.86,16.84Z"/>
    <polygon class="cls-9" points="118.45 311.31 133.62 308.72 136.04 318.16 123.75 320.14 118.45 311.31"/>
  </g>
  <g>
    <path class="cls-2" d="M146.99,330.15s17.23-2.41,25.69-7.36,23.69-10.49,30.46-8.49,9.23,7.75,10.61,8.49,8.61-.16,10.77,1.14,5.85,5.76,5.85,8.53.15,4.15,2.77,6.61,6.15,9.38,3.85,16.77-19.77,32.3-39.77,32.61c0,0-23.67-3.77-14.18-4.71s27.98-8.55,27.4-9.13c-.32-.32-16.09-5.94-26.61-17.23-8.6-9.23-12.37-24.57-12.37-24.57,0,0-16.39,6.91-22.83,3.28s-3.78-5.6-1.62-5.94Z"/>
    <path class="cls-8" d="M180.23,329.83c-.98.63-1.47,1.79-1.19,2.91.69,2.81,2.22,7.88,4.43,8.41,3.08.73,23.74-9.97,23.16-14.66s-11.52-6.19-26.39,3.34Z"/>
    <path class="cls-8" d="M191.91,348.63c-1.34.76-1.25,2.79-.33,4.02,2.18,2.93,6.18,7.71,8.68,7.25,3.59-.66,28.59-21.41,20.85-27.86-5.84-4.88-16.07,9.16-29.2,16.59Z"/>
    <path class="cls-8" d="M209.88,363.24c-.69.9-.46,2.19.51,2.79,2.17,1.34,6.87,3.22,9.15,2.08,3.38-1.69,12.49-15.62,9.76-20.82-2.28-4.35-15.48,10.84-19.42,15.95Z"/>
  </g>
  <g>
    <path class="cls-2" d="M354.88,314.27s-17.97-1.85-25.98-7.49-22.72-12.45-29.64-11.02-9.85,6.94-11.29,7.56-8.57-.89-10.83.23-6.31,5.25-6.54,8.01c-.23,2.76-.5,4.13-3.32,6.36s-6.92,8.83-5.24,16.38c1.66,7.49,26.53,44.2,46.35,46.78.35.05.71.05,1.06.02,3.48-.27,22.58-2.25,13.99-3.45-19.9-2.78-36.76-20.96-36.53-22.41.82-5.06,16.53-4.56,27.97-14.93,6.17-5.59,10.47-14.02,12.68-19.1,1.03-2.38,3.67-3.63,6.15-2.88,5.45,1.63,14.52,3.8,19.04,1.73,6.72-3.07,4.23-5.27,2.12-5.79Z"/>
    <path class="cls-8" d="M320.78,313.16c.92.71,1.31,1.9.94,3-.92,2.74-2.87,7.66-5.12,8-3.13.47-22.82-11.93-21.84-16.55s12-5.2,26.02,5.55Z"/>
    <path class="cls-8" d="M307.56,330.9c1.27.87,1.02,2.88,0,4.04-2.42,2.73-6.8,7.16-9.26,6.49-3.52-.96-26.68-23.74-18.43-29.52,6.23-4.37,15.24,10.48,27.7,18.99Z"/>
    <path class="cls-8" d="M288.42,343.95c.62.95.27,2.22-.74,2.74-2.27,1.16-7.12,2.63-9.3,1.3-3.23-1.97-11.13-16.61-7.97-21.57,2.64-4.14,14.51,12.11,18.01,17.53Z"/>
  </g>
</svg>